<svg xmlns="http://www.w3.org/2000/svg" xmlns:xlink="http://www.w3.org/1999/xlink" width="500" zoomAndPan="magnify" viewBox="0 0 375 374.999991" height="500" preserveAspectRatio="xMidYMid meet" version="1.0"><defs><clipPath id="fa0383e6ae"><path d="M 17.285156 17.285156 L 357.714844 17.285156 L 357.714844 357.714844 L 17.285156 357.714844 Z M 17.285156 17.285156 " clip-rule="nonzero"/></clipPath><clipPath id="c1f25f88e5"><path d="M 187.5 17.285156 C 93.492188 17.285156 17.285156 93.492188 17.285156 187.5 C 17.285156 281.507812 93.492188 357.714844 187.5 357.714844 C 281.507812 357.714844 357.714844 281.507812 357.714844 187.5 C 357.714844 93.492188 281.507812 17.285156 187.5 17.285156 Z M 187.5 17.285156 " clip-rule="nonzero"/></clipPath><clipPath id="1915230b52"><path d="M 85.742188 85.742188 L 288.992188 85.742188 L 288.992188 288.992188 L 85.742188 288.992188 Z M 85.742188 85.742188 " clip-rule="nonzero"/></clipPath></defs><g clip-path="url(#fa0383e6ae)"><g clip-path="url(#c1f25f88e5)"><path fill="#fdb223" d="M 17.285156 17.285156 L 357.714844 17.285156 L 357.714844 357.714844 L 17.285156 357.714844 Z M 17.285156 17.285156 " fill-opacity="1" fill-rule="nonzero"/></g></g><g clip-path="url(#1915230b52)"><path fill="#182e49" d="M 289.25 106.941406 C 289.25 95.25 279.738281 85.742188 268.050781 85.742188 L 204.457031 85.742188 L 204.457031 123.5625 L 209.933594 121.898438 C 214.980469 120.355469 219.421875 119.660156 221.414062 119.660156 C 226.085938 119.660156 229.894531 123.460938 229.894531 128.140625 C 229.894531 132.820312 226.085938 136.621094 221.414062 136.621094 C 219.421875 136.621094 214.980469 135.925781 209.933594 134.382812 L 204.457031 132.71875 L 204.457031 170.539062 L 231.046875 170.539062 C 230.316406 173.835938 229.894531 176.847656 229.894531 179.015625 C 229.894531 188.371094 237.5 195.976562 246.851562 195.976562 C 256.207031 195.976562 263.8125 188.371094 263.8125 179.015625 C 263.8125 176.847656 263.386719 173.835938 262.660156 170.539062 L 289.25 170.539062 Z M 280.769531 162.058594 L 251.441406 162.058594 L 253.101562 167.535156 C 254.636719 172.582031 255.332031 177.023438 255.332031 179.015625 C 255.332031 183.699219 251.527344 187.496094 246.851562 187.496094 C 242.179688 187.496094 238.375 183.699219 238.375 179.015625 C 238.375 177.023438 239.078125 172.574219 240.605469 167.535156 L 242.265625 162.058594 L 212.933594 162.058594 L 212.933594 143.9375 C 216.234375 144.675781 219.253906 145.097656 221.414062 145.097656 C 230.769531 145.097656 238.375 137.492188 238.375 128.140625 C 238.375 118.789062 230.769531 111.179688 221.414062 111.179688 C 219.253906 111.179688 216.234375 111.605469 212.933594 112.34375 L 212.933594 94.222656 L 268.050781 94.222656 C 275.066406 94.222656 280.769531 99.929688 280.769531 106.941406 Z M 210.707031 209.933594 C 212.238281 214.980469 212.933594 219.421875 212.933594 221.414062 C 212.933594 226.09375 209.128906 229.894531 204.457031 229.894531 C 199.785156 229.894531 195.976562 226.09375 195.976562 221.414062 C 195.976562 219.421875 196.679688 214.96875 198.207031 209.933594 L 199.867188 204.457031 L 170.539062 204.457031 L 170.539062 128.140625 L 106.941406 128.140625 C 95.257812 128.140625 85.742188 137.644531 85.742188 149.339844 L 85.742188 289.25 L 246.851562 289.25 L 246.851562 204.457031 L 209.042969 204.457031 Z M 94.222656 149.339844 C 94.222656 142.328125 99.929688 136.621094 106.941406 136.621094 L 162.058594 136.621094 L 162.058594 204.457031 L 143.945312 204.457031 C 144.675781 201.15625 145.097656 198.148438 145.097656 195.976562 C 145.097656 186.625 137.492188 179.015625 128.140625 179.015625 C 118.789062 179.015625 111.179688 186.625 111.179688 195.976562 C 111.179688 198.148438 111.605469 201.15625 112.335938 204.457031 L 94.222656 204.457031 Z M 162.058594 280.769531 L 94.222656 280.769531 L 94.222656 212.933594 L 123.554688 212.933594 L 121.890625 207.457031 C 120.355469 202.414062 119.660156 197.96875 119.660156 195.976562 C 119.660156 191.296875 123.46875 187.496094 128.140625 187.496094 C 132.8125 187.496094 136.621094 191.296875 136.621094 195.976562 C 136.621094 197.96875 135.917969 202.421875 134.390625 207.457031 L 132.726562 212.933594 L 162.058594 212.933594 L 162.058594 231.054688 C 158.761719 230.316406 155.742188 229.894531 153.578125 229.894531 C 144.226562 229.894531 136.621094 237.5 136.621094 246.851562 C 136.621094 256.207031 144.226562 263.8125 153.578125 263.8125 C 155.742188 263.8125 158.761719 263.386719 162.058594 262.652344 Z M 220.261719 212.933594 L 238.375 212.933594 L 238.375 280.769531 L 170.539062 280.769531 L 170.539062 251.433594 L 165.058594 253.09375 C 160.015625 254.636719 155.570312 255.332031 153.578125 255.332031 C 148.90625 255.332031 145.097656 251.535156 145.097656 246.851562 C 145.097656 242.171875 148.90625 238.375 153.578125 238.375 C 155.570312 238.375 160.015625 239.070312 165.058594 240.613281 L 170.539062 242.273438 L 170.539062 212.933594 L 188.648438 212.933594 C 187.921875 216.234375 187.496094 219.242188 187.496094 221.414062 C 187.496094 230.769531 195.101562 238.375 204.457031 238.375 C 213.808594 238.375 221.414062 230.769531 221.414062 221.414062 C 221.414062 219.242188 220.992188 216.234375 220.261719 212.933594 Z M 220.261719 212.933594 " fill-opacity="1" fill-rule="nonzero"/></g></svg>