<svg xmlns="http://www.w3.org/2000/svg" xmlns:xlink="http://www.w3.org/1999/xlink" width="500" zoomAndPan="magnify" viewBox="0 0 375 374.999991" height="500" preserveAspectRatio="xMidYMid meet" version="1.0"><defs><clipPath id="0daa76a120"><path d="M 17.285156 17.285156 L 357.714844 17.285156 L 357.714844 357.714844 L 17.285156 357.714844 Z M 17.285156 17.285156 " clip-rule="nonzero"/></clipPath><clipPath id="8103d0731c"><path d="M 187.5 17.285156 C 93.492188 17.285156 17.285156 93.492188 17.285156 187.5 C 17.285156 281.507812 93.492188 357.714844 187.5 357.714844 C 281.507812 357.714844 357.714844 281.507812 357.714844 187.5 C 357.714844 93.492188 281.507812 17.285156 187.5 17.285156 Z M 187.5 17.285156 " clip-rule="nonzero"/></clipPath></defs><g clip-path="url(#0daa76a120)"><g clip-path="url(#8103d0731c)"><path fill="#fdb223" d="M 17.285156 17.285156 L 357.714844 17.285156 L 357.714844 357.714844 L 17.285156 357.714844 Z M 17.285156 17.285156 " fill-opacity="1" fill-rule="nonzero"/></g></g><path stroke-linecap="round" transform="matrix(2.1875, 0, 0, 2.1875, 82.322958, 82.322954)" fill="none" stroke-linejoin="round" d="M 57.000576 88.000578 L 8.000576 88.000578 C 7.738076 88.000578 7.477362 87.973792 7.220219 87.923792 C 6.96129 87.872006 6.71129 87.79522 6.468433 87.69522 C 6.227362 87.59522 5.995219 87.472006 5.777362 87.325578 C 5.559505 87.179149 5.357719 87.014863 5.172005 86.829149 C 4.98629 86.643435 4.820219 86.439863 4.67379 86.222006 C 4.527362 86.004149 4.404148 85.773792 4.304148 85.530935 C 4.204148 85.288078 4.127362 85.038078 4.077362 84.780935 C 4.025576 84.522006 4.000576 84.263078 4.000576 84.000578 L 4.000576 13.000578 L 14.000576 4.000578 L 57.000576 4.000578 C 57.263076 4.000578 57.522004 4.025578 57.780933 4.077364 C 58.038076 4.127364 58.288076 4.20415 58.530933 4.30415 C 58.77379 4.40415 59.004147 4.527364 59.222004 4.673793 C 59.439861 4.820221 59.643433 4.986293 59.829147 5.172007 C 60.014861 5.357721 60.179147 5.559507 60.325576 5.777364 C 60.472004 5.995221 60.595219 6.227364 60.695219 6.468435 C 60.795219 6.711293 60.872004 6.961292 60.92379 7.220221 C 60.97379 7.477364 61.000576 7.738078 61.000576 8.000578 L 61.000576 50.000578 " stroke="#182e49" stroke-width="2" stroke-opacity="1" stroke-miterlimit="4"/><path stroke-linecap="round" transform="matrix(2.1875, 0, 0, 2.1875, 82.322958, 82.322954)" fill="none" stroke-linejoin="round" d="M 4.000576 13.000578 L 14.000576 13.000578 L 14.000576 4.000578 " stroke="#182e49" stroke-width="2" stroke-opacity="1" stroke-miterlimit="4"/><path stroke-linecap="round" transform="matrix(2.1875, 0, 0, 2.1875, 82.322958, 82.322954)" fill="none" stroke-linejoin="round" d="M 81.429147 64.000578 L 67.089861 78.350578 C 66.988076 78.454149 66.875576 78.545221 66.755933 78.627363 C 66.634504 78.709506 66.507719 78.777363 66.37379 78.834506 C 66.238076 78.889863 66.100576 78.932721 65.957719 78.961292 C 65.814861 78.989863 65.670219 79.004149 65.525576 79.004149 C 65.379147 79.004149 65.234504 78.989863 65.093433 78.961292 C 64.950576 78.932721 64.81129 78.889863 64.677361 78.834506 C 64.543433 78.777363 64.414861 78.709506 64.295219 78.627363 C 64.17379 78.545221 64.063076 78.454149 63.959504 78.350578 L 59.570219 74.000578 C 59.350576 73.779149 59.180933 73.525578 59.06129 73.238078 C 58.941647 72.950578 58.880933 72.650578 58.879147 72.339863 C 58.880933 72.109506 58.916647 71.882721 58.984504 71.661292 C 59.052361 71.441649 59.150576 71.234506 59.279147 71.043435 C 59.407719 70.850578 59.56129 70.680935 59.741647 70.534506 C 59.920219 70.388078 60.114861 70.272006 60.329147 70.182721 C 60.543433 70.093435 60.764861 70.038078 60.995219 70.014863 C 61.22379 69.991649 61.452361 70.002363 61.679147 70.047006 C 61.905933 70.091649 62.122004 70.166649 62.327361 70.275578 C 62.530933 70.382721 62.714861 70.518435 62.879147 70.679149 L 65.509504 73.309506 L 78.109504 60.689864 C 78.27379 60.527364 78.459504 60.393435 78.663076 60.284506 C 78.868433 60.177364 79.082718 60.100578 79.31129 60.055935 C 79.538076 60.013078 79.764861 60.002364 79.995218 60.025578 C 80.225576 60.048792 80.447004 60.104149 80.66129 60.193435 C 80.87379 60.280935 81.070218 60.398792 81.24879 60.545221 C 81.427361 60.691649 81.582718 60.861292 81.71129 61.052364 C 81.839861 61.245221 81.938076 61.450578 82.005933 61.672006 C 82.07379 61.893435 82.109504 62.118435 82.109504 62.350578 C 82.109504 62.659506 82.050576 62.955935 81.932718 63.241649 C 81.814861 63.527364 81.647004 63.780935 81.429147 64.000578 Z M 81.429147 64.000578 " stroke="#182e49" stroke-width="2" stroke-opacity="1" stroke-miterlimit="4"/><path stroke-linecap="round" transform="matrix(2.1875, 0, 0, 2.1875, 82.322958, 82.322954)" fill="none" stroke-linejoin="round" d="M 92.000576 70.000578 C 92.000576 70.720221 91.964861 71.439863 91.893433 72.155935 C 91.82379 72.873792 91.718433 73.584506 91.577361 74.291649 C 91.43629 74.998792 91.26129 75.697006 91.052361 76.386292 C 90.843433 77.075578 90.600576 77.754149 90.325576 78.418435 C 90.04879 79.084506 89.741647 79.734506 89.402361 80.370221 C 89.063076 81.005935 88.693433 81.623792 88.291647 82.222006 C 87.891647 82.822006 87.463076 83.400578 87.005933 83.955935 C 86.54879 84.513078 86.066647 85.047006 85.555933 85.555935 C 85.047004 86.066649 84.513076 86.548792 83.955933 87.005935 C 83.400576 87.463078 82.822004 87.891649 82.222004 88.291649 C 81.62379 88.693435 81.005933 89.063078 80.370218 89.402363 C 79.734504 89.741649 79.084504 90.048792 78.418433 90.325578 C 77.754147 90.600578 77.075576 90.843435 76.38629 91.052363 C 75.697004 91.261292 74.99879 91.436292 74.291647 91.577363 C 73.584504 91.718435 72.87379 91.823792 72.155933 91.893435 C 71.439861 91.964863 70.720219 92.000578 70.000576 92.000578 C 69.279147 92.000578 68.56129 91.964863 67.843433 91.893435 C 67.127361 91.823792 66.414861 91.718435 65.707719 91.577363 C 65.000576 91.436292 64.302361 91.261292 63.613076 91.052363 C 62.92379 90.843435 62.247004 90.600578 61.580933 90.325578 C 60.914861 90.048792 60.264861 89.741649 59.629147 89.402363 C 58.993433 89.063078 58.377361 88.693435 57.777361 88.291649 C 57.179147 87.891649 56.600576 87.463078 56.043433 87.005935 C 55.48629 86.548792 54.952362 86.066649 54.443433 85.555935 C 53.934504 85.047006 53.450576 84.513078 52.993433 83.955935 C 52.53629 83.400578 52.107719 82.822006 51.707719 82.222006 C 51.307719 81.623792 50.938076 81.005935 50.597004 80.370221 C 50.257719 79.734506 49.950576 79.084506 49.67379 78.418435 C 49.39879 77.754149 49.155933 77.075578 48.947004 76.386292 C 48.738076 75.697006 48.563076 74.998792 48.422004 74.291649 C 48.282719 73.584506 48.177362 72.873792 48.105933 72.155935 C 48.034504 71.439863 48.000576 70.720221 48.000576 70.000578 C 48.000576 69.279149 48.034504 68.561292 48.105933 67.843435 C 48.177362 67.127363 48.282719 66.414863 48.422004 65.707721 C 48.563076 65.000578 48.738076 64.302363 48.947004 63.613078 C 49.155933 62.923792 49.39879 62.247006 49.67379 61.580935 C 49.950576 60.914864 50.257719 60.264864 50.597004 59.629149 C 50.938076 58.993435 51.307719 58.377364 51.707719 57.777364 C 52.107719 57.179149 52.53629 56.600578 52.993433 56.043435 C 53.450576 55.486292 53.934504 54.952364 54.443433 54.443435 C 54.952362 53.934506 55.48629 53.450578 56.043433 52.993435 C 56.600576 52.536292 57.179147 52.107721 57.777361 51.707721 C 58.377361 51.307721 58.993433 50.938078 59.629147 50.597006 C 60.264861 50.257721 60.914861 49.950578 61.580933 49.673792 C 62.247004 49.398792 62.92379 49.155935 63.613076 48.947006 C 64.302361 48.738078 65.000576 48.563078 65.707719 48.422006 C 66.414861 48.282721 67.127361 48.177364 67.843433 48.105935 C 68.56129 48.034506 69.279147 48.000578 70.000576 48.000578 C 70.720219 48.000578 71.439861 48.034506 72.155933 48.105935 C 72.87379 48.177364 73.584504 48.282721 74.291647 48.422006 C 74.99879 48.563078 75.697004 48.738078 76.38629 48.947006 C 77.075576 49.155935 77.754147 49.398792 78.418433 49.673792 C 79.084504 49.950578 79.734504 50.257721 80.370218 50.597006 C 81.005933 50.938078 81.62379 51.307721 82.222004 51.707721 C 82.822004 52.107721 83.400576 52.536292 83.955933 52.993435 C 84.513076 53.450578 85.047004 53.934506 85.555933 54.443435 C 86.066647 54.952364 86.54879 55.486292 87.005933 56.043435 C 87.463076 56.600578 87.891647 57.179149 88.291647 57.777364 C 88.693433 58.377364 89.063076 58.993435 89.402361 59.629149 C 89.741647 60.264864 90.04879 60.914864 90.325576 61.580935 C 90.600576 62.247006 90.843433 62.923792 91.052361 63.613078 C 91.26129 64.302363 91.43629 65.000578 91.577361 65.707721 C 91.718433 66.414863 91.82379 67.127363 91.893433 67.843435 C 91.964861 68.561292 92.000576 69.279149 92.000576 70.000578 Z M 92.000576 70.000578 " stroke="#182e49" stroke-width="2" stroke-opacity="1" stroke-miterlimit="4"/><path stroke-linecap="round" transform="matrix(2.1875, 0, 0, 2.1875, 82.322958, 82.322954)" fill="none" stroke-linejoin="round" d="M 13.000576 21.000578 L 25.000576 21.000578 " stroke="#182e49" stroke-width="2" stroke-opacity="1" stroke-miterlimit="4"/><path stroke-linecap="round" transform="matrix(2.1875, 0, 0, 2.1875, 82.322958, 82.322954)" fill="none" stroke-linejoin="round" d="M 13.000576 67.000578 L 25.000576 67.000578 " stroke="#182e49" stroke-width="2" stroke-opacity="1" stroke-miterlimit="4"/><path stroke-linecap="round" transform="matrix(2.1875, 0, 0, 2.1875, 82.322958, 82.322954)" fill="none" stroke-linejoin="round" d="M 13.000576 29.000578 L 53.000576 29.000578 " stroke="#182e49" stroke-width="2" stroke-opacity="1" stroke-miterlimit="4"/><path stroke-linecap="round" transform="matrix(2.1875, 0, 0, 2.1875, 82.322958, 82.322954)" fill="none" stroke-linejoin="round" d="M 13.000576 34.000578 L 53.000576 34.000578 " stroke="#182e49" stroke-width="2" stroke-opacity="1" stroke-miterlimit="4"/><path stroke-linecap="round" transform="matrix(2.1875, 0, 0, 2.1875, 82.322958, 82.322954)" fill="none" stroke-linejoin="round" d="M 13.000576 39.000578 L 53.000576 39.000578 " stroke="#182e49" stroke-width="2" stroke-opacity="1" stroke-miterlimit="4"/><path stroke-linecap="round" transform="matrix(2.1875, 0, 0, 2.1875, 82.322958, 82.322954)" fill="none" stroke-linejoin="round" d="M 13.000576 44.000578 L 53.000576 44.000578 " stroke="#182e49" stroke-width="2" stroke-opacity="1" stroke-miterlimit="4"/><path stroke-linecap="round" transform="matrix(2.1875, 0, 0, 2.1875, 82.322958, 82.322954)" fill="none" stroke-linejoin="round" d="M 13.000576 49.000578 L 53.000576 49.000578 " stroke="#182e49" stroke-width="2" stroke-opacity="1" stroke-miterlimit="4"/><path stroke-linecap="round" transform="matrix(2.1875, 0, 0, 2.1875, 82.322958, 82.322954)" fill="none" stroke-linejoin="round" d="M 12.000576 78.259506 C 12.622005 77.364863 13.357719 76.577363 14.209505 75.897006 C 15.059505 75.216649 15.989862 74.670221 17.000576 74.259506 C 20.000576 73.259506 21.000576 75.259506 21.000576 78.259506 C 22.500576 76.759506 26.000576 74.259506 26.000576 77.259506 C 26.000576 80.259506 27.000576 79.259506 30.000576 78.259506 C 33.000576 77.259506 36.000576 79.259506 36.000576 79.259506 " stroke="#182e49" stroke-width="2" stroke-opacity="1" stroke-miterlimit="4"/></svg>