<svg xmlns="http://www.w3.org/2000/svg" xmlns:xlink="http://www.w3.org/1999/xlink" width="500" zoomAndPan="magnify" viewBox="0 0 375 374.999991" height="500" preserveAspectRatio="xMidYMid meet" version="1.0"><defs><clipPath id="d197d00343"><path d="M 17.285156 17.285156 L 357.714844 17.285156 L 357.714844 357.714844 L 17.285156 357.714844 Z M 17.285156 17.285156 " clip-rule="nonzero"/></clipPath><clipPath id="0910a6d0f4"><path d="M 187.5 17.285156 C 93.492188 17.285156 17.285156 93.492188 17.285156 187.5 C 17.285156 281.507812 93.492188 357.714844 187.5 357.714844 C 281.507812 357.714844 357.714844 281.507812 357.714844 187.5 C 357.714844 93.492188 281.507812 17.285156 187.5 17.285156 Z M 187.5 17.285156 " clip-rule="nonzero"/></clipPath></defs><g clip-path="url(#d197d00343)"><g clip-path="url(#0910a6d0f4)"><path fill="#fdb223" d="M 17.285156 17.285156 L 357.714844 17.285156 L 357.714844 357.714844 L 17.285156 357.714844 Z M 17.285156 17.285156 " fill-opacity="1" fill-rule="nonzero"/></g></g><path stroke-linecap="round" transform="matrix(2.34375, 0, 0, 2.34375, 75, 74.999995)" fill="none" stroke-linejoin="round" d="M 26.000002 52.400006 L 21.000002 70.140007 C 21.000002 70.140007 30.870002 83.410008 43.810003 91.510008 C 44.115003 91.701675 44.443336 91.838341 44.795003 91.920008 C 45.14667 92.000008 45.50167 92.021675 45.860003 91.981675 C 46.218337 91.943341 46.560003 91.846675 46.88667 91.691675 C 47.21167 91.536675 47.503337 91.333341 47.760003 91.080008 C 47.90667 90.936675 48.038337 90.778341 48.155003 90.608341 C 48.270003 90.438341 48.368337 90.258341 48.448337 90.068341 C 48.528337 89.878341 48.588337 89.683341 48.630003 89.481675 C 48.670003 89.280008 48.690003 89.076675 48.690003 88.870008 C 48.690003 88.663341 48.670003 88.460008 48.630003 88.258341 C 48.588337 88.056675 48.528337 87.860008 48.448337 87.671675 C 48.368337 87.481675 48.270003 87.301675 48.155003 87.131674 C 48.038337 86.961674 47.90667 86.803341 47.760003 86.660008 L 44.000003 83.000008 L 51.090004 90.000008 C 51.283337 90.188341 51.49167 90.355008 51.71667 90.503341 C 51.943337 90.650008 52.180004 90.775008 52.430004 90.876675 C 52.678337 90.978341 52.935004 91.053341 53.200004 91.105008 C 53.463337 91.156675 53.730004 91.183341 54.000004 91.183341 C 54.270004 91.183341 54.53667 91.156675 54.800004 91.105008 C 55.065004 91.053341 55.32167 90.978341 55.570004 90.876675 C 55.820004 90.775008 56.056671 90.650008 56.283337 90.503341 C 56.508337 90.355008 56.716671 90.188341 56.910004 90.000008 C 57.118337 89.806675 57.303337 89.593341 57.465004 89.360008 C 57.626671 89.126675 57.763337 88.880008 57.871671 88.618341 C 57.981671 88.355008 58.061671 88.085008 58.115004 87.806675 C 58.166671 87.526675 58.188337 87.245008 58.180004 86.961674 C 58.171671 86.678341 58.135004 86.398341 58.066671 86.121674 C 57.998337 85.846674 57.903337 85.581674 57.778337 85.325008 C 57.655004 85.070008 57.505004 84.831674 57.330004 84.608341 C 57.155004 84.383341 56.958337 84.181674 56.740004 84.000008 L 51.000004 79.000007 L 59.000004 86.160008 C 59.195004 86.333341 59.406671 86.486674 59.631671 86.618341 C 59.858337 86.750008 60.095004 86.858341 60.343337 86.943341 C 60.590004 87.028341 60.845004 87.088341 61.103338 87.121674 C 61.363338 87.156674 61.623338 87.165008 61.885004 87.146674 C 62.146671 87.130008 62.403338 87.086674 62.655004 87.016674 C 62.908338 86.948341 63.151671 86.855008 63.385004 86.738341 C 63.618338 86.620008 63.838338 86.481674 64.045004 86.320008 C 64.251671 86.158341 64.440004 85.978341 64.610004 85.780008 C 64.770004 85.591674 64.910004 85.390008 65.030004 85.175008 C 65.150004 84.960008 65.250004 84.736674 65.326671 84.501674 C 65.403338 84.266674 65.456671 84.028341 65.486671 83.783341 C 65.516671 83.538341 65.523338 83.293341 65.505004 83.046674 C 65.488338 82.801674 65.446671 82.560008 65.381671 82.321674 C 65.316671 82.083341 65.230004 81.855007 65.120004 81.633341 C 65.011671 81.411674 64.881671 81.203341 64.731671 81.008341 C 64.581671 80.813341 64.415004 80.633341 64.230004 80.470007 L 57.000004 74.090007 L 64.060004 80.350007 C 64.250004 80.520007 64.455004 80.670007 64.675004 80.800007 C 64.895004 80.928341 65.125004 81.035007 65.366671 81.120007 C 65.606671 81.203341 65.855005 81.261674 66.106671 81.296674 C 66.360005 81.330007 66.613338 81.340007 66.868338 81.323341 C 67.123338 81.306674 67.373338 81.265007 67.620005 81.198341 C 67.866671 81.133341 68.103338 81.043341 68.331671 80.930007 C 68.561671 80.815007 68.776671 80.680007 68.978338 80.525007 C 69.178338 80.368341 69.363338 80.193341 69.530005 80.000007 C 69.693338 79.810007 69.836671 79.603341 69.958338 79.385007 C 70.080005 79.165007 70.178338 78.935007 70.255005 78.695007 C 70.330005 78.456674 70.380005 78.211674 70.406671 77.961674 C 70.431671 77.711674 70.433338 77.461674 70.408338 77.211674 C 70.383338 76.961674 70.333338 76.716674 70.260005 76.476674 C 70.185005 76.236674 70.086671 76.006674 69.966671 75.786674 C 69.845005 75.566674 69.703338 75.361674 69.540005 75.170007 C 69.378338 74.97834 69.198338 74.805007 69.000005 74.650007 L 51.000004 60.290006 C 51.000004 60.290006 46.000003 59.290006 44.000003 61.290006 C 43.230003 62.060006 42.000003 63.110006 40.800003 64.120006 C 40.54667 64.331673 40.275003 64.520006 39.986669 64.681673 C 39.698336 64.84334 39.396669 64.97834 39.083336 65.085006 C 38.771669 65.191673 38.450003 65.26834 38.123336 65.316673 C 37.795003 65.365006 37.466669 65.381673 37.136669 65.36834 C 36.805003 65.356673 36.478336 65.31334 36.156669 65.240006 C 35.833336 65.166673 35.520003 65.065006 35.216669 64.935006 C 34.911669 64.80334 34.623336 64.646673 34.348336 64.46334 C 34.073336 64.27834 33.816669 64.071673 33.580002 63.840006 C 33.358336 62.885006 33.301669 61.921673 33.413336 60.948339 C 33.525002 59.975006 33.796669 59.048339 34.230002 58.170006 C 34.623336 57.321673 35.088336 56.513339 35.625003 55.746672 C 36.161669 54.980006 36.761669 54.266672 37.425003 53.606672 C 38.088336 52.946672 38.803336 52.350006 39.571669 51.816672 C 40.340003 51.281672 41.150003 50.820005 42.000003 50.430005 C 36.596669 50.523339 31.263336 51.180005 26.000002 52.400006 Z M 26.000002 52.400006 " stroke="#182e49" stroke-width="2" stroke-opacity="1" stroke-miterlimit="4"/><path stroke-linecap="round" transform="matrix(2.34375, 0, 0, 2.34375, 75, 74.999995)" fill="none" stroke-linejoin="round" d="M 42.000003 50.430005 C 42.000003 50.430005 57.000004 46.490005 70.000005 53.430006 " stroke="#182e49" stroke-width="2" stroke-opacity="1" stroke-miterlimit="4"/><path stroke-linecap="round" transform="matrix(2.34375, 0, 0, 2.34375, 75, 74.999995)" fill="none" stroke-linejoin="round" d="M 26.000002 52.400006 L 27.000002 48.460005 L 4 42.550005 L 4 70.140007 L 20.000001 73.100007 Z M 26.000002 52.400006 " stroke="#182e49" stroke-width="2" stroke-opacity="1" stroke-miterlimit="4"/><path stroke-linecap="round" transform="matrix(2.34375, 0, 0, 2.34375, 75, 74.999995)" fill="none" stroke-linejoin="round" d="M 70.000005 52.400006 L 69.000005 48.460005 L 92.000006 42.550005 L 92.000006 70.140007 L 76.000005 73.100007 Z M 70.000005 52.400006 " stroke="#182e49" stroke-width="2" stroke-opacity="1" stroke-miterlimit="4"/><path stroke-linecap="round" transform="matrix(2.34375, 0, 0, 2.34375, 75, 74.999995)" fill="none" stroke-linejoin="round" d="M 70.000005 76.060007 C 70.000005 76.060007 72.000005 76.060007 76.000005 73.060007 " stroke="#182e49" stroke-width="2" stroke-opacity="1" stroke-miterlimit="4"/><path stroke-linecap="round" transform="matrix(2.34375, 0, 0, 2.34375, 75, 74.999995)" fill="none" stroke-linejoin="round" d="M 67.500005 23.500004 C 67.500005 24.138337 67.468338 24.775004 67.406671 25.41167 C 67.343338 26.04667 67.250005 26.678337 67.125005 27.305004 C 67.000005 27.930004 66.845005 28.550004 66.660005 29.160004 C 66.475005 29.771671 66.260005 30.371671 66.015005 30.961671 C 65.771671 31.551671 65.498338 32.128338 65.196671 32.691671 C 64.896671 33.255004 64.568338 33.803338 64.213338 34.333338 C 63.858338 34.865004 63.478338 35.376671 63.073338 35.870004 C 62.668338 36.365004 62.240004 36.836671 61.788338 37.288338 C 61.336671 37.740005 60.865004 38.168338 60.370004 38.573338 C 59.876671 38.978338 59.365004 39.358338 58.833337 39.713338 C 58.303337 40.068338 57.755004 40.396671 57.191671 40.696671 C 56.628337 40.998338 56.051671 41.271671 55.46167 41.515005 C 54.87167 41.760005 54.27167 41.975005 53.660004 42.160005 C 53.050004 42.345005 52.430004 42.500005 51.805004 42.625005 C 51.178337 42.750005 50.54667 42.843338 49.91167 42.906672 C 49.275003 42.968338 48.638337 43.000005 48.000003 43.000005 C 47.36167 43.000005 46.725003 42.968338 46.088337 42.906672 C 45.453336 42.843338 44.82167 42.750005 44.195003 42.625005 C 43.570003 42.500005 42.950003 42.345005 42.340003 42.160005 C 41.728336 41.975005 41.128336 41.760005 40.538336 41.515005 C 39.948336 41.271671 39.371669 40.998338 38.808336 40.696671 C 38.245003 40.396671 37.696669 40.068338 37.166669 39.713338 C 36.635003 39.358338 36.123336 38.978338 35.630003 38.573338 C 35.135002 38.168338 34.663336 37.740005 34.211669 37.288338 C 33.760002 36.836671 33.331669 36.365004 32.926669 35.870004 C 32.521669 35.376671 32.141669 34.865004 31.786669 34.333338 C 31.431669 33.803338 31.103336 33.255004 30.803336 32.691671 C 30.501669 32.128338 30.228335 31.551671 29.985002 30.961671 C 29.740002 30.371671 29.525002 29.771671 29.340002 29.160004 C 29.155002 28.550004 29.000002 27.930004 28.875002 27.305004 C 28.750002 26.678337 28.656669 26.04667 28.593335 25.41167 C 28.531669 24.775004 28.500002 24.138337 28.500002 23.500004 C 28.500002 22.86167 28.531669 22.225004 28.593335 21.588337 C 28.656669 20.953337 28.750002 20.32167 28.875002 19.695003 C 29.000002 19.070003 29.155002 18.450003 29.340002 17.840003 C 29.525002 17.228337 29.740002 16.628337 29.985002 16.038336 C 30.228335 15.448336 30.501669 14.87167 30.803336 14.308336 C 31.103336 13.745003 31.431669 13.19667 31.786669 12.66667 C 32.141669 12.135003 32.521669 11.623336 32.926669 11.130003 C 33.331669 10.635003 33.760002 10.163336 34.211669 9.711669 C 34.663336 9.260003 35.135002 8.831669 35.630003 8.426669 C 36.123336 8.021669 36.635003 7.641669 37.166669 7.286669 C 37.696669 6.931669 38.245003 6.603336 38.808336 6.303336 C 39.371669 6.001669 39.948336 5.728336 40.538336 5.485002 C 41.128336 5.240002 41.728336 5.025002 42.340003 4.840002 C 42.950003 4.655002 43.570003 4.500002 44.195003 4.375002 C 44.82167 4.250002 45.453336 4.156669 46.088337 4.093336 C 46.725003 4.031669 47.36167 4.000002 48.000003 4.000002 C 48.638337 4.000002 49.275003 4.031669 49.91167 4.093336 C 50.54667 4.156669 51.178337 4.250002 51.805004 4.375002 C 52.430004 4.500002 53.050004 4.655002 53.660004 4.840002 C 54.27167 5.025002 54.87167 5.240002 55.46167 5.485002 C 56.051671 5.728336 56.628337 6.001669 57.191671 6.303336 C 57.755004 6.603336 58.303337 6.931669 58.833337 7.286669 C 59.365004 7.641669 59.876671 8.021669 60.370004 8.426669 C 60.865004 8.831669 61.336671 9.260003 61.788338 9.711669 C 62.240004 10.163336 62.668338 10.635003 63.073338 11.130003 C 63.478338 11.623336 63.858338 12.135003 64.213338 12.66667 C 64.568338 13.19667 64.896671 13.745003 65.196671 14.308336 C 65.498338 14.87167 65.771671 15.448336 66.015005 16.038336 C 66.260005 16.628337 66.475005 17.228337 66.660005 17.840003 C 66.845005 18.450003 67.000005 19.070003 67.125005 19.695003 C 67.250005 20.32167 67.343338 20.953337 67.406671 21.588337 C 67.468338 22.225004 67.500005 22.86167 67.500005 23.500004 Z M 67.500005 23.500004 " stroke="#182e49" stroke-width="2" stroke-opacity="1" stroke-miterlimit="4"/><path stroke-linecap="round" transform="matrix(2.34375, 0, 0, 2.34375, 75, 74.999995)" fill="none" stroke-linejoin="round" d="M 48.000003 12.860003 L 48.000003 34.090004 " stroke="#182e49" stroke-width="2" stroke-opacity="1" stroke-miterlimit="4"/><path stroke-linecap="round" transform="matrix(2.34375, 0, 0, 2.34375, 75, 74.999995)" fill="none" stroke-linejoin="round" d="M 33.510002 25.120004 C 33.510002 25.413337 33.538336 25.703337 33.595002 25.990004 C 33.653336 26.27667 33.736669 26.556671 33.850002 26.826671 C 33.961669 27.096671 34.098336 27.355004 34.261669 27.598337 C 34.425002 27.841671 34.610002 28.066671 34.816669 28.273337 C 35.023336 28.480004 35.248336 28.665004 35.491669 28.828337 C 35.735003 28.991671 35.993336 29.128337 36.263336 29.240004 C 36.533336 29.353337 36.813336 29.436671 37.100003 29.495004 C 37.386669 29.551671 37.676669 29.580004 37.970003 29.580004 C 38.263336 29.580004 38.553336 29.551671 38.840003 29.495004 C 39.126669 29.436671 39.406669 29.353337 39.676669 29.240004 C 39.946669 29.128337 40.205003 28.991671 40.448336 28.828337 C 40.69167 28.665004 40.91667 28.480004 41.123336 28.273337 C 41.330003 28.066671 41.515003 27.841671 41.678336 27.598337 C 41.84167 27.355004 41.978336 27.096671 42.090003 26.826671 C 42.203336 26.556671 42.28667 26.27667 42.345003 25.990004 C 42.40167 25.703337 42.430003 25.413337 42.430003 25.120004 Z M 33.510002 25.120004 " stroke="#182e49" stroke-width="2" stroke-opacity="1" stroke-miterlimit="4"/><path stroke-linecap="round" transform="matrix(2.34375, 0, 0, 2.34375, 75, 74.999995)" fill="none" stroke-linejoin="round" d="M 33.510002 25.120004 L 37.970003 15.090003 L 42.430003 25.120004 Z M 33.510002 25.120004 " stroke="#182e49" stroke-width="2" stroke-opacity="1" stroke-miterlimit="4"/><path stroke-linecap="round" transform="matrix(2.34375, 0, 0, 2.34375, 75, 74.999995)" fill="none" stroke-linejoin="round" d="M 37.970003 15.090003 L 48.000003 15.090003 " stroke="#182e49" stroke-width="2" stroke-opacity="1" stroke-miterlimit="4"/><path stroke-linecap="round" transform="matrix(2.34375, 0, 0, 2.34375, 75, 74.999995)" fill="none" stroke-linejoin="round" d="M 62.490004 25.120004 C 62.490004 25.413337 62.461671 25.703337 62.405004 25.990004 C 62.346671 26.27667 62.263338 26.556671 62.150004 26.826671 C 62.038338 27.096671 61.901671 27.355004 61.738338 27.598337 C 61.575004 27.841671 61.390004 28.066671 61.183338 28.273337 C 60.976671 28.480004 60.751671 28.665004 60.508337 28.828337 C 60.265004 28.991671 60.006671 29.128337 59.736671 29.240004 C 59.466671 29.353337 59.186671 29.436671 58.900004 29.495004 C 58.613337 29.551671 58.323337 29.580004 58.030004 29.580004 C 57.736671 29.580004 57.446671 29.551671 57.160004 29.495004 C 56.873337 29.436671 56.593337 29.353337 56.323337 29.240004 C 56.053337 29.128337 55.795004 28.991671 55.55167 28.828337 C 55.308337 28.665004 55.083337 28.480004 54.87667 28.273337 C 54.670004 28.066671 54.485004 27.841671 54.32167 27.598337 C 54.158337 27.355004 54.02167 27.096671 53.910004 26.826671 C 53.79667 26.556671 53.713337 26.27667 53.655004 25.990004 C 53.598337 25.703337 53.570004 25.413337 53.570004 25.120004 Z M 62.490004 25.120004 " stroke="#182e49" stroke-width="2" stroke-opacity="1" stroke-miterlimit="4"/><path stroke-linecap="round" transform="matrix(2.34375, 0, 0, 2.34375, 75, 74.999995)" fill="none" stroke-linejoin="round" d="M 62.490004 25.120004 L 58.030004 15.090003 L 53.570004 25.120004 Z M 62.490004 25.120004 " stroke="#182e49" stroke-width="2" stroke-opacity="1" stroke-miterlimit="4"/><path stroke-linecap="round" transform="matrix(2.34375, 0, 0, 2.34375, 75, 74.999995)" fill="none" stroke-linejoin="round" d="M 58.030004 15.090003 L 48.000003 15.090003 " stroke="#182e49" stroke-width="2" stroke-opacity="1" stroke-miterlimit="4"/><path stroke-linecap="round" transform="matrix(2.34375, 0, 0, 2.34375, 75, 74.999995)" fill="none" stroke-linejoin="round" d="M 43.540003 34.030004 L 52.460004 34.030004 " stroke="#182e49" stroke-width="2" stroke-opacity="1" stroke-miterlimit="4"/></svg>